<svg width="211" height="208" viewBox="0 0 211 208" fill="none" xmlns="http://www.w3.org/2000/svg">
<g clip-path="url(#clip0_2012_8314)">
<path d="M76.4961 48.1701C91.2831 51.1933 106.616 50.0772 120.811 44.9443C158.277 31.6024 189.104 48.8939 196.852 59.7624C205.84 72.409 207.325 89.0451 203.167 104.251C199.008 119.456 189.633 133.317 178.409 145.416C169.632 154.849 159.381 163.512 147.121 168.436C135.13 173.24 121.989 174.192 109.149 174.842C92.652 175.674 75.8305 176.101 60.1012 172.226C47.2732 169.074 34.0981 161.278 32.9775 148.973C32.0104 138.492 40.2306 128.176 39.0871 117.712C37.4772 103.06 19.0913 95.8045 13.0158 82.377C5.92764 66.7383 14.9272 49.5037 27.2376 45.8106C40.0542 41.9807 60.38 44.7619 76.4961 48.1701Z" fill="#615D5C" fill-opacity="0.1"/>
<path d="M78.9878 34.0188C68.2645 52.4331 33.6203 58.064 21.5545 67.5191C10.5184 76.1762 4.64199 96.1977 5.23361 112.156C5.82524 128.114 17.9308 143.986 33.8137 145.331C40.7255 145.901 47.6373 143.861 54.5547 144.334C76.7009 145.85 89.0397 170.733 108.512 181.379C130.954 193.678 159.557 184.975 180.321 170.009C193.524 160.491 205.414 147.867 209.618 132.12C213.822 116.373 208.366 97.3148 194.048 89.5809C181.146 82.6107 161.497 83.6366 156.474 69.8387C152.958 60.1955 159.813 50.1135 161.355 39.9632C163.761 24.0623 151.684 8.22972 136.381 3.36826C121.079 -1.49321 107.05 -2.3196 95.7695 9.1188C90.5074 14.4818 82.7594 27.5331 78.9878 34.0188Z" fill="#615D5C" fill-opacity="0.2"/>
</g>
<path d="M159.476 94.4286H119.859C116.257 94.4286 112.802 92.995 110.255 90.4431C107.707 87.8913 106.276 84.4303 106.276 80.8214V41.1339C106.276 40.8332 106.157 40.5448 105.945 40.3321C105.732 40.1195 105.445 40 105.144 40H79.1105C74.3073 40 69.7008 41.9115 66.3044 45.3139C62.9081 48.7164 61 53.3311 61 58.1429V148.857C61 153.669 62.9081 158.284 66.3044 161.686C69.7008 165.089 74.3073 167 79.1105 167H142.497C147.301 167 151.907 165.089 155.303 161.686C158.7 158.284 160.608 153.669 160.608 148.857V95.5625C160.608 95.2618 160.489 94.9733 160.276 94.7607C160.064 94.548 159.776 94.4286 159.476 94.4286Z" fill="white"/>
<path d="M156.711 85.0632L116.732 42.6617C116.655 42.5797 116.556 42.5239 116.448 42.5014C116.341 42.4788 116.229 42.4905 116.128 42.5349C116.027 42.5793 115.94 42.6546 115.879 42.7511C115.818 42.8476 115.785 42.9611 115.784 43.0774V81.3511C115.784 82.6023 116.253 83.8022 117.087 84.6869C117.921 85.5716 119.053 86.0686 120.232 86.0686H156.319C156.429 86.0681 156.536 86.0333 156.627 85.9684C156.718 85.9036 156.788 85.8117 156.83 85.7043C156.872 85.5968 156.883 85.4786 156.862 85.3646C156.841 85.2505 156.788 85.1457 156.711 85.0632V85.0632Z" fill="white"/>
<path d="M146 121.875C131.508 121.875 119.75 133.801 119.75 148.5C119.75 163.199 131.508 175.125 146 175.125C160.492 175.125 172.25 163.199 172.25 148.5C172.25 133.801 160.492 121.875 146 121.875Z" stroke="#C8352E" stroke-width="6" stroke-miterlimit="10"/>
<path d="M146 130.75V150.719H159.125" stroke="#C8352E" stroke-width="6" stroke-linecap="round" stroke-linejoin="round"/>
<defs>
<clipPath id="clip0_2012_8314">
<rect width="211" height="208" fill="white"/>
</clipPath>
</defs>
</svg>
