<svg xmlns="http://www.w3.org/2000/svg" width="3703.243" height="1266.522" viewBox="0 0 3703.243 1266.522">
  <g id="LogoTnm-blanco" transform="translate(-26.657 1290.522)">
    <path id="Trazado_6" data-name="Trazado 6" d="M622-1290a609.016,609.016,0,0,0-116.2,17.6c-175.5,44-325.8,163.5-408.9,324.9C53.4-863,30.5-775,27.1-679.5c-5.3,148.7,37.1,286.7,117.6,382,5.6,6.6,11.5,13,13.1,14.2l3,2.2L175-299.2C359.5-532.6,583.3-712,826.6-821.3,957-879.9,1088.5-917,1213.3-930.4c7.1-.7,13.3-1.8,13.9-2.4,1.7-1.7.4-4.8-11.3-25.2-41.7-73.2-96.8-137.4-163.8-190.9C951.5-1229.2,832-1277.6,708-1288.5,686.2-1290.4,642.5-1291.1,622-1290Z" fill="#fff"/>
    <path id="Trazado_7" data-name="Trazado 7" d="M2444-1256.4c-41.1,5.2-68.1,23.2-78,52a86.553,86.553,0,0,0-3,14.8c-3.6,30.6,11,45.3,57.9,58.1,33.2,9,41.1,13,41.1,21,0,3.9-3.4,9.2-7.8,12.2-8,5.3-25.9,5.7-35.9.7-6.5-3.2-9.8-7.3-10.8-13.4l-.7-4H2345v7.8c0,31.8,25.1,54.4,64.7,58.2,25.8,2.4,54.2-2.8,76.3-14.1,19.5-9.9,30.7-23.2,37.2-43.9,1.9-6.1,2.3-9.7,2.3-19.5,0-11.6-.1-12.3-3.3-18.7-5.2-10.6-16-19-33.2-25.8-3-1.2-14.8-4.6-26.3-7.5-24.3-6.3-32.1-9.8-35-15.8-2.3-4.6-1.7-7.9,2.2-11.7,3.6-3.6,8.7-5,18.7-5,13.7,0,21.4,4.2,23,12.5l.6,3.5h62l-.7-7.7c-2.1-22.5-10-35.2-27.3-44.1-12.8-6.7-24.5-9.3-43.2-9.7C2454.5-1256.7,2445.9-1256.6,2444-1256.4Z" fill="#fff"/>
    <path id="Trazado_8" data-name="Trazado 8" d="M2845-1256.4c-30.1,3.8-56.5,17.1-76.5,38.6-12.7,13.6-22.7,32.3-28.1,52.2-3.5,13.2-5.7,36.5-4.5,46.6,3.6,28.7,18.1,50.6,40.6,61.5,25.3,12.2,66.1,11.9,95.6-.9,14-6,24.5-13.2,36.5-25.1,19-18.7,30.7-40.5,36-67.4,1.3-6.5,1.5-12,1.1-25.5-.5-20-1.6-24.8-8.7-39.2-10.3-21.1-26.9-33.7-51.2-39C2878.7-1256.1,2852.2-1257.3,2845-1256.4Zm19,50.5c15.1,6.6,20.6,25.7,15.9,54.4-3.8,22.8-17.1,44.5-31.6,51.3-5.2,2.4-6.9,2.7-16.8,2.7-9.4,0-11.6-.3-15-2.2-13.3-7.1-18.1-23.9-14-48.4q9-54.3,40.8-59.8C2850.1-1209.1,2858.4-1208.3,2864-1205.9Z" fill="#fff"/>
    <path id="Trazado_9" data-name="Trazado 9" d="M3636.2-1255.9c-26.2,3.5-49.4,14.7-62,29.7-11.4,13.7-15.6,25.4-15.7,43.7,0,11.5.1,12.3,3.2,18.7,4.4,9.3,10.2,14.6,22.6,20.7,9.7,4.7,16.5,7.1,45.7,15.6,17.5,5.1,24.7,8.5,26.5,12.8,3.1,7.5-2.4,15.9-12.3,18.8-2.6.8-9,1.4-14.2,1.4-8.6,0-10.1-.3-15.5-3-6.7-3.3-10.2-7.6-11.1-13.7l-.7-3.8h-63l.6,8.8c1.6,21.6,11.6,37.2,30.4,47.4,36.3,19.6,103.8,9.9,131.4-18.9,10.7-11,17.2-25.8,19.1-42.9,1-8.9.9-11.2-.6-17.1-2.7-11.2-9.6-19.7-21.6-26.6-8.6-5-19.6-8.8-40-14.2-22.3-5.8-27.8-7.8-32.7-11.9-6.4-5.4-5.2-14.5,2.4-18.2,5.3-2.7,25.2-2.8,30-.1,4.6,2.5,7.2,5.5,8.4,9.9l1,3.8h61.8l-.6-5.8c-2.3-26-10.1-38.2-30.5-47.7-12.2-5.6-22-7.6-39.8-8A207.489,207.489,0,0,0,3636.2-1255.9Z" fill="#fff"/>
    <path id="Trazado_10" data-name="Trazado 10" d="M1542-1251.3c0,1-7.8,46.1-8.5,49l-.5,2.3h29c15.9,0,29,.3,29,.7,0,.5-5.8,33.2-12.8,72.8l-12.8,72,32.4.3c17.9.1,32.6.1,32.7,0,.2-.2,5.5-30.7,11.9-67.8s12.1-69.9,12.7-72.8l1-5.2h58.4l4.3-24.8c2.3-13.6,4.2-25.3,4.2-26,0-.9-18.8-1.2-90.5-1.2C1582.7-1252,1542-1251.7,1542-1251.3Z" fill="#fff"/>
    <path id="Trazado_11" data-name="Trazado 11" d="M1741.5-1249.8c-.3,1.3-7.9,44.6-17,96.3s-16.8,95.2-17.1,96.7l-.6,2.8h32.6c17.9,0,32.6-.3,32.6-.8,0-.4,2.7-15.8,6-34.2s6-33.6,6-33.8c0-.7,25.5,0,31.4.8,17.3,2.5,19.4,7.1,16.2,36.5-1.5,13.2-2,22.4-1.8,28.2l.2,3.3h32.4c28.6,0,32.5-.2,33-1.6,1.1-2.8.7-4.2-1.4-4.7-3.3-.9-3.5-5.2-.5-21.6a240.957,240.957,0,0,0,3.2-27.7c.9-20.4-2.1-26-17.9-34l-7.2-3.6,5.9-2.2c19.5-7.2,32.1-24.7,35.5-49.6,3.3-23.8-5.7-39.8-26.2-46.9-14.6-5-20.4-5.4-84.5-5.9l-60.2-.4Zm100,46.9a22.2,22.2,0,0,1,7.3,5.9c4.6,6.9,1.7,19.8-5.7,24.8-6.3,4.1-12.5,5.3-32.3,5.9-17.5.6-18.8.5-18.8-1.2,0-1.8,5.8-35,6.6-37.3.3-1.1,4.2-1.3,19.2-1C1835.6-1205.5,1836.8-1205.4,1841.5-1202.9Z" fill="#fff"/>
    <path id="Trazado_12" data-name="Trazado 12" d="M2004.7-1249.8c-2.5,4.1-103.7,194.6-103.7,195.2,0,.3,14.1.6,31.3.6h31.2l5.7-12.8,5.6-12.7,32.5-.3,32.5-.2.5,2.2c.3,1.3,1.1,7.1,1.8,13l1.2,10.8H2108l-.5-2.3c-.3-1.2-8.2-44.5-17.5-96.2-9.4-51.7-17.3-95.2-17.6-96.8l-.6-2.7H2006Zm27.4,93.5c2.1,18.6,3.9,34.1,3.9,34.5,0,.5-9.3.8-20.6.8s-20.4-.4-20.2-.9c2.1-5.6,32.3-69,32.6-68.6C2028-1190.3,2030-1174.9,2032.1-1156.3Z" fill="#fff"/>
    <path id="Trazado_13" data-name="Trazado 13" d="M2157-1251.1c0,.5-7.6,44.3-17,97.4-9.3,53.1-17,97.2-17,98.1,0,1.4,3.3,1.6,31,1.6,17.1,0,31-.3,31-.6s2.4-14.1,5.4-30.7,6.7-40.3,8.1-52.7c1.5-12.4,2.8-22.6,2.9-22.7.1-.2,11.7,23.7,25.7,53l25.5,53.2,30.7.3c19.6.1,30.7-.1,30.7-.8,0-.5,7.7-44.4,17-97.4,9.4-53.1,17-97.2,17-98.1,0-1.4-3.4-1.5-30.7-1.3l-30.7.3-5.3,30c-2.9,16.5-6.6,40.3-8.2,52.8-1.6,12.6-3.1,23-3.3,23.2s-11.8-23.7-25.8-53.1l-25.3-53.4h-30.9C2170.5-1252,2157-1251.6,2157-1251.1Z" fill="#fff"/>
    <path id="Trazado_14" data-name="Trazado 14" d="M2567.5-1250.8c-.5,1.5-34.5,194.5-34.5,195.9,0,.5,13.5.9,32.3.9h32.2l4.3-25.3c2.4-13.8,4.8-27.8,5.4-31l1-5.7h23.3c33.1,0,46-2.2,63.4-10.6,7.8-3.8,10.8-6,18.1-13.2,9.9-9.9,15.1-18.9,19.6-33.7,2.4-7.9,2.7-10.7,2.8-23.5.1-16.5-1.1-21.7-7.2-30.9-6.5-9.8-20.7-17.9-38.6-21.8C2679.7-1251.9,2568.3-1252.9,2567.5-1250.8Zm86.9,45.8c13,2.1,19.1,7.8,18.9,17.5-.1,9.3-5.5,17.5-14.7,22.3-4.9,2.6-5.7,2.7-23.9,3-17.9.3-18.9.3-18.4-1.5.3-1,2.3-10.9,4.3-22.1l3.8-20.2h12C2643.1-1206,2651.2-1205.6,2654.4-1205Z" fill="#fff"/>
    <path id="Trazado_15" data-name="Trazado 15" d="M2981.5-1249.8c-.3,1.3-7.9,44.6-17,96.3s-16.8,95.2-17.1,96.7l-.6,2.8h32.6c17.9,0,32.6-.3,32.6-.6s2.7-15.6,6-34,6-33.7,6-34.1c0-.3,7.5-.3,16.8,0,32.2,1,34.4,3.7,30.8,36.6-.9,7.9-1.6,18.3-1.6,23.2v8.9h32.4c28.6,0,32.5-.2,33-1.6,1.1-2.8.7-4.2-1.4-4.7-3.2-.8-3.3-5-.5-21a277.673,277.673,0,0,0,3.2-27.7c.9-21-1.9-26.6-17.9-34.6l-7.2-3.6,5.9-2.2c16.8-6.2,28.1-19.3,33.6-39.1,3.2-11.4,3.2-27.7.1-35.6-5.5-13.8-16.9-21.2-39.3-25.5-8.2-1.5-17.2-1.8-69.6-2.2l-60.2-.4Zm100,46.9c6.8,3.5,9.5,7.7,9.5,14.8,0,6.7-2.9,12.4-7.9,15.8-6.2,4.2-12.5,5.4-32.3,6-17.6.6-18.8.5-18.8-1.2,0-2,5.8-33.9,6.6-36.8.5-1.7,1.9-1.8,19.3-1.5C3075.6-1205.5,3076.8-1205.4,3081.5-1202.9Z" fill="#fff"/>
    <path id="Trazado_16" data-name="Trazado 16" d="M3176.2-1227.3c-2.3,13.7-4.2,25.4-4.2,26,0,1,6.4,1.3,28.5,1.3s28.5.3,28.5,1.2c0,.7-5.6,33-12.5,71.8-6.9,38.7-12.5,71-12.5,71.7,0,1,6.7,1.3,32.5,1.3,17.9,0,32.5-.2,32.5-.5,0-.2,5.6-32.9,12.5-72.5,6.9-39.7,12.5-72.3,12.5-72.6,0-.2,13.2-.4,29.3-.4h29.4l2.2-13.3c1.3-7.2,3.4-18.9,4.6-26l2.2-12.7H3180.4Z" fill="#fff"/>
    <path id="Trazado_17" data-name="Trazado 17" d="M3384.5-1250.8c-.4,1.3-34.5,195.2-34.5,196.2,0,.3,37.1.6,82.5.6H3515l.5-2.3c.2-1.2,1.8-10.3,3.5-20.2s3.3-19.2,3.6-20.8l.6-2.7h-50.1c-27.6,0-50.1-.3-50.1-.8,0-.4,1.1-7.2,2.5-15.2s2.5-14.6,2.5-14.8c0-.1,18.4-.2,40.8-.2h40.8l3.8-20.8c2.1-11.4,4-21.7,4.3-23l.5-2.2h-82.1l.6-3.3c.4-1.7,1.6-8.2,2.8-14.2l2-11,48.3-.3c26.5-.1,48.2-.6,48.2-1.1s1.8-10.6,4-22.5,4-21.8,4-22.1-36.2-.5-80.5-.5C3401.9-1252,3384.9-1251.7,3384.5-1250.8Z" fill="#fff"/>
    <path id="Trazado_18" data-name="Trazado 18" d="M1561.6-963.3c-.3,1.6-21.7,123.2-47.6,270.3s-61,346.7-78.1,443.5c-17,96.8-32.8,186.3-35,199-2.2,12.6-4.2,23.8-4.5,24.7-.5,1.7,7,1.8,147.5,1.8,140.1,0,148-.1,148.5-1.8.3-.9,12.4-68.3,27-149.7l26.4-148,12.3-106c6.7-58.3,12.5-106.3,12.8-106.7.3-.3,55.7,114.7,123.1,255.7L2016.5-24.1l144.2.1h144.1l.6-2.7c.3-1.6,8.9-50.1,19-107.8,10.2-57.8,33.2-188.3,51.1-290,17.9-101.8,46.5-264.2,63.5-361,17.1-96.8,31.2-177,31.5-178.3l.5-2.2H2177.4l-27.2,155.2-27.3,155.3L2110.5-555c-6.9,55.3-12.7,100.9-12.9,101.5-.2.5-2-2.4-3.9-6.5-2-4.1-56.9-119.6-122.1-256.5l-118.5-249-145.5-.3-145.4-.2Z" fill="#fff"/>
    <path id="Trazado_19" data-name="Trazado 19" d="M2606.6-963.3c-.3,1.6-4.6,25.7-9.6,53.8-7.9,45-42.4,241.4-89.5,508.5-8.5,48.1-26.7,151.6-40.5,230-13.7,78.4-25.2,143.5-25.5,144.7L2441-24h136.9c129.6,0,137-.1,137.5-1.8.6-2.2,13.8-70.3,21.5-111.7,23.5-125.2,41.3-237.1,51.1-320.5,1.6-14,6.1-57.7,10-97,6.4-65.4,7.7-76.9,7.9-71.7.1.9,6.4,58.8,14.1,128.5,37.2,338,52,472.2,52,473.2,0,.7,34.2.9,107.2.8l107.2-.3L3094-41c132.4-285.4,271.5-584.7,272.1-585.4,1-1.1,2.9-8.2-23.9,89.4l-22.1,80.5-12,61.5c-6.7,33.8-24.7,130.3-40.1,214.5-15.4,84.1-28.2,153.8-28.4,154.8-.4,1.6,6.5,1.7,138.7,1.5l139-.3L3568.1-313c28-158.7,65.3-370.3,82.9-470.2s32-182,32-182.3-83.6-.5-185.8-.5H3311.4l-1.8,3.7c-1,2.1-61.2,132.9-133.8,290.8-72.6,157.8-132.9,288.6-133.9,290.5-1.5,2.8-1.8,3.1-1.9,1.3,0-1.1-13.1-127.1-29-280-16-152.8-29.5-282.3-30-287.8-.6-5.5-1.3-11.9-1.6-14.3l-.6-4.2H2607.2Z" fill="#fff"/>
    <path id="Trazado_20" data-name="Trazado 20" d="M1266.5-717.6A1357.048,1357.048,0,0,0,951.7-526c-64.2,52.2-129.6,116-185.2,181C692.5-258.7,622.8-154.3,572-53.8L560-30.2l5.8.6c46.3,5,158.8,6,193.2,1.7,88-10.9,167.8-41.6,247.5-95.1,90.4-60.8,159.4-136.7,209.8-230.5,48.1-89.6,74.7-195,74.7-296,0-12.1-4.3-75.2-5.2-76.1C1285.6-725.7,1276.9-722.2,1266.5-717.6Z" fill="#fff"/>
    <path id="Trazado_21" data-name="Trazado 21" d="M808-602.8C605.9-464.3,449-310.7,334.2-138.7c-13.7,20.6-14.4,21.8-12.6,23.2,8.5,6.2,59.5,34.6,62,34.5.5-.1,2.9-4.4,5.4-9.7,11-23.6,35-67.1,54.8-99.3,84.5-137.5,209.7-278.4,359.3-404.5,24.4-20.6,26.4-22.4,25.9-22.4C828.7-616.9,819.3-610.5,808-602.8Z" fill="#fff"/>
  </g>
</svg>
