<svg width="70" height="26" viewBox="0 0 70 26" fill="none" xmlns="http://www.w3.org/2000/svg">
<g clip-path="url(#clip0)">
<path d="M54.1384 6.65012L53.2384 8.79012L47.5684 22.1901C47.1584 23.1401 46.7584 24.0901 46.3584 25.0501C46.3424 25.102 46.3085 25.1466 46.2627 25.1758C46.2169 25.2051 46.1623 25.2173 46.1084 25.2101H40.5284C40.3584 25.2101 40.3184 25.1601 40.3184 25.0001C40.3184 23.4301 40.2484 21.8601 40.2084 20.2901C40.1684 18.7201 40.1284 17.2901 40.0984 15.7701V14.5501H40.0184C40.0226 14.586 40.0174 14.6223 40.0034 14.6556C39.9893 14.6889 39.967 14.718 39.9384 14.7401L36.0384 25.0601C36.0384 25.1601 35.9584 25.2201 35.8384 25.2201H29.9684L28.6484 6.65012H34.5084C34.5084 10.4401 34.5784 14.2301 34.6084 18.0201L34.6684 17.9201L37.7884 9.64012C38.1384 8.69012 38.4884 7.74012 38.8484 6.79012C38.8558 6.74597 38.8793 6.70614 38.9145 6.67841C38.9496 6.65067 38.9938 6.63702 39.0384 6.64012H43.9684L44.1484 18.0201L44.3984 17.3301C45.3984 14.4301 46.4884 11.5401 47.5284 8.65012L48.2184 6.76012C48.2184 6.67012 48.2784 6.62012 48.3984 6.62012H54.1684L54.1384 6.65012Z" fill="white"/>
<path d="M18.2298 17.1404V23.5604C18.2398 23.625 18.226 23.6909 18.1911 23.7461C18.1561 23.8012 18.1024 23.8419 18.0398 23.8604C16.5809 24.5961 14.9913 25.0371 13.3619 25.1583C11.7325 25.2795 10.0952 25.0785 8.54345 24.5668C6.99172 24.0551 5.556 23.2428 4.31827 22.1762C3.08054 21.1096 2.06505 19.8096 1.3298 18.3504C1.2298 18.1504 1.1298 17.9404 1.0398 17.7304C0.165634 15.7279 -0.166122 13.5306 0.0778693 11.3593C0.32186 9.18791 1.133 7.11902 2.4298 5.36045C2.5098 5.24045 2.5798 5.21045 2.7098 5.26045L9.2698 7.46045L16.7698 9.96045L18.0598 10.4004C18.1998 10.4004 18.2298 10.5004 18.2298 10.6404V17.1404Z" fill="white"/>
<path d="M52.2608 19.4904H58.0708C58.0814 19.6976 58.1184 19.9026 58.1808 20.1004C58.2262 20.2892 58.3112 20.4662 58.4301 20.6196C58.5491 20.773 58.6993 20.8994 58.8708 20.9904C59.5179 21.3748 60.2731 21.5364 61.0208 21.4504C61.4025 21.4104 61.7803 21.3402 62.1508 21.2404C62.4734 21.1496 62.7599 20.9609 62.9708 20.7004C63.0739 20.6067 63.1563 20.4925 63.2127 20.365C63.2691 20.2376 63.2982 20.0998 63.2982 19.9604C63.2982 19.8211 63.2691 19.6833 63.2127 19.5558C63.1563 19.4284 63.0739 19.3142 62.9708 19.2204C62.8808 19.1326 62.7758 19.0615 62.6608 19.0104C62.0073 18.7381 61.3397 18.5011 60.6608 18.3004C59.6608 17.9904 58.6608 17.7304 57.6608 17.4204C56.8919 17.1799 56.1562 16.844 55.4708 16.4204C55.0523 16.1421 54.7007 15.7744 54.4413 15.3438C54.1819 14.9133 54.0212 14.4305 53.9708 13.9304C53.8813 13.3371 53.8813 12.7337 53.9708 12.1404C54.1266 11.1007 54.5404 10.1166 55.1745 9.27813C55.8086 8.43962 56.6428 7.77342 57.6008 7.34043C58.8013 6.73989 60.1039 6.37015 61.4408 6.25043C62.3591 6.17043 63.2826 6.17043 64.2008 6.25043C65.5362 6.33872 66.8301 6.75057 67.9708 7.45043C68.4518 7.76433 68.8615 8.17579 69.1733 8.65814C69.4851 9.14049 69.6921 9.68297 69.7808 10.2504C69.8908 10.7704 69.9008 11.3204 69.9608 11.8604C69.9608 12.0104 69.8908 12.0104 69.7808 12.0104H64.3808C64.2308 12.0104 64.1808 12.0104 64.1708 11.8104C64.1574 11.5618 64.0717 11.3224 63.9243 11.1217C63.7769 10.921 63.5741 10.7676 63.3408 10.6804C62.7545 10.4449 62.117 10.3657 61.4908 10.4504C61.1828 10.48 60.8801 10.5506 60.5908 10.6604C60.399 10.7177 60.2288 10.8313 60.1022 10.9864C59.9756 11.1415 59.8985 11.331 59.8808 11.5304C59.8716 11.7352 59.9213 11.9382 60.0242 12.1155C60.127 12.2928 60.2785 12.4368 60.4608 12.5304C61.0295 12.8526 61.6428 13.0885 62.2808 13.2304C63.5999 13.4902 64.8946 13.8615 66.1508 14.3404C66.7803 14.5985 67.3749 14.9344 67.9208 15.3404C68.3444 15.6721 68.685 16.0977 68.9159 16.5837C69.1467 17.0696 69.2614 17.6026 69.2508 18.1404C69.2718 19.3012 69.0038 20.449 68.4708 21.4804C67.824 22.7584 66.7679 23.7828 65.4708 24.3904C64.1651 25.0218 62.762 25.4275 61.3208 25.5904C60.3261 25.7205 59.32 25.7406 58.3208 25.6504C56.6665 25.5677 55.0883 24.9301 53.8408 23.8404C53.2852 23.3415 52.8525 22.7208 52.5767 22.0269C52.3008 21.333 52.1893 20.5846 52.2508 19.8404C52.2508 19.7604 52.2508 19.6304 52.2608 19.4904Z" fill="white"/>
<path d="M22.9692 6.13997L21.7492 6.82997L19.4992 8.13997C19.4512 8.16454 19.3981 8.17735 19.3442 8.17735C19.2903 8.17735 19.2372 8.16454 19.1892 8.13997L11.3792 5.53997L4.61922 3.28997L4.44922 3.21997C5.68805 2.16832 7.12195 1.37107 8.669 0.873768C10.216 0.376464 11.8459 0.188851 13.4655 0.321649C15.0851 0.454447 16.6626 0.905053 18.108 1.64772C19.5534 2.39039 20.8382 3.41057 21.8892 4.64997C22.2836 5.12078 22.6445 5.61867 22.9692 6.13997V6.13997Z" fill="white"/>
<path d="M40.7388 5.21977H39.4588C39.4464 4.93131 39.4699 4.64243 39.5288 4.35977C39.5988 4.07977 39.4687 3.87977 39.1287 3.85977C38.5387 3.80977 38.5388 3.80977 38.4388 4.37977C38.4197 4.62352 38.3762 4.86474 38.3088 5.09977C38.3088 5.09977 38.2288 5.21977 38.1888 5.21977H36.9688C37.0487 4.77977 37.1188 4.34977 37.1888 3.91977C37.3388 3.08977 37.4887 2.25977 37.6287 1.42977C37.6287 1.29977 37.6987 1.25977 37.8187 1.25977H40.0988C40.2619 1.26943 40.4232 1.29967 40.5788 1.34977C40.7361 1.39312 40.8738 1.48938 40.9685 1.62234C41.0632 1.75531 41.1092 1.91685 41.0988 2.07977C41.1127 2.34431 41.0429 2.60653 40.8993 2.82913C40.7557 3.05174 40.5455 3.22342 40.2988 3.31977V3.31977C40.6988 3.48977 40.7888 3.60977 40.7188 4.22977C40.7188 4.39977 40.6487 4.55977 40.6387 4.72977C40.6566 4.89588 40.6901 5.05994 40.7388 5.21977V5.21977ZM38.6787 2.98977C38.9797 2.98971 39.2804 2.96966 39.5788 2.92977C39.675 2.91263 39.7614 2.85995 39.8206 2.78216C39.8799 2.70436 39.9078 2.60714 39.8988 2.50977C39.8891 2.42308 39.8483 2.34285 39.7839 2.28399C39.7195 2.22513 39.636 2.19165 39.5488 2.18977H38.8288L38.6787 2.98977Z" fill="white"/>
<path d="M45.2712 3.06049L44.8812 5.23049H44.0812V4.87049L43.9712 4.98049C43.7097 5.17281 43.4032 5.29493 43.0811 5.3352C42.759 5.37546 42.432 5.33252 42.1312 5.21049C41.8816 5.12097 41.6644 4.9589 41.5076 4.74508C41.3508 4.53125 41.2615 4.27544 41.2512 4.01049C41.1894 3.46678 41.2988 2.91736 41.5641 2.43878C41.8294 1.96019 42.2374 1.57626 42.7312 1.34049C43.0265 1.20683 43.347 1.1377 43.6712 1.1377C43.9954 1.1377 44.3158 1.20683 44.6112 1.34049C44.8365 1.4536 45.0215 1.63321 45.1414 1.855C45.2612 2.07679 45.31 2.33005 45.2812 2.58049H44.0812C44.0591 2.45069 43.9896 2.33375 43.8861 2.25241C43.7826 2.17108 43.6525 2.13118 43.5212 2.14049C43.363 2.13212 43.2059 2.17151 43.0704 2.25354C42.9349 2.33557 42.8271 2.45645 42.7612 2.60049C42.578 2.94862 42.4852 3.33716 42.4912 3.73049C42.4771 3.89453 42.5279 4.05754 42.6326 4.18463C42.7372 4.31172 42.8875 4.39279 43.0512 4.41049C43.1238 4.4253 43.1986 4.4253 43.2712 4.41049C43.4079 4.3979 43.5388 4.34848 43.6497 4.26748C43.7606 4.18648 43.8475 4.07693 43.9012 3.95049H43.3612L43.5012 3.10049L45.2712 3.06049Z" fill="white"/>
<path d="M47.54 5.34014C47.2294 5.38008 46.9139 5.32619 46.6341 5.18542C46.3544 5.04464 46.1231 4.8234 45.97 4.55014C45.7802 4.18778 45.7202 3.77134 45.8 3.37014C45.8561 2.72687 46.1638 2.13173 46.6563 1.71414C47.1488 1.29655 47.7863 1.09026 48.43 1.14014C48.6131 1.15424 48.7941 1.18776 48.97 1.24014C49.2392 1.31758 49.4788 1.47455 49.6572 1.69047C49.8356 1.90638 49.9447 2.17118 49.97 2.45014C50.0779 3.09267 49.9285 3.75181 49.5543 4.28511C49.18 4.81841 48.6109 5.18302 47.97 5.30014C47.8278 5.32336 47.6841 5.33672 47.54 5.34014V5.34014ZM48.74 2.88014C48.75 2.79042 48.75 2.69986 48.74 2.61014C48.7155 2.46196 48.6334 2.32946 48.5117 2.24146C48.39 2.15345 48.2385 2.11704 48.09 2.14014C47.9743 2.13819 47.8598 2.16341 47.7555 2.21377C47.6513 2.26414 47.5604 2.33825 47.49 2.43014C47.1999 2.82485 47.0646 3.31234 47.11 3.80014C47.1113 3.88156 47.1287 3.96193 47.161 4.03665C47.1934 4.11138 47.2402 4.17899 47.2987 4.23564C47.3572 4.29229 47.4263 4.33685 47.502 4.36679C47.5777 4.39673 47.6586 4.41146 47.74 4.41014C47.8739 4.40659 48.0034 4.36112 48.11 4.28014C48.2325 4.19783 48.3377 4.09255 48.42 3.97014C48.6298 3.64537 48.741 3.26676 48.74 2.88014Z" fill="white"/>
<path d="M32.88 2.77047H31.7V2.68047C31.7092 2.57078 31.6805 2.46124 31.6186 2.37021C31.5567 2.27918 31.4654 2.21219 31.36 2.18047C31.2408 2.12244 31.1066 2.10281 30.9759 2.12431C30.8451 2.1458 30.7242 2.20735 30.63 2.30047C30.3388 2.5866 30.1673 2.97264 30.15 3.38047C30.11 3.56837 30.11 3.76257 30.15 3.95047C30.1738 4.02998 30.2134 4.10388 30.2663 4.16781C30.3193 4.23174 30.3845 4.28438 30.4582 4.32262C30.5319 4.36085 30.6125 4.38391 30.6952 4.39041C30.778 4.39691 30.8612 4.38673 30.94 4.36047C31.0174 4.34013 31.0892 4.30252 31.15 4.25047C31.2806 4.11192 31.3978 3.96124 31.5 3.80047C31.5 3.80047 31.57 3.71047 31.61 3.71047H32.77C32.6409 4.21338 32.3357 4.65333 31.91 4.95047C31.6058 5.15738 31.2571 5.28966 30.8922 5.33657C30.5274 5.38348 30.1566 5.34371 29.81 5.22047C29.5244 5.15274 29.2701 4.99038 29.0886 4.75979C28.907 4.5292 28.8088 4.24396 28.81 3.95047C28.748 3.47526 28.8245 2.99227 29.0303 2.55947C29.236 2.12666 29.5623 1.76242 29.97 1.51047C30.2636 1.32204 30.596 1.20255 30.9424 1.16099C31.2888 1.11942 31.6401 1.15685 31.97 1.27047C32.2855 1.35542 32.5561 1.55871 32.7256 1.83808C32.8951 2.11745 32.9504 2.45139 32.88 2.77047V2.77047Z" fill="white"/>
<path d="M36.0211 1.26004L36.7411 5.26004H35.6611C35.5211 5.26004 35.4411 5.26004 35.4311 5.07004C35.4211 4.88004 35.4311 4.86004 35.4311 4.73004H34.1411C34.1411 4.73004 34.0411 4.80004 34.0311 4.85004C34.0214 4.91477 33.9989 4.9769 33.9648 5.03276C33.9307 5.08863 33.8857 5.13711 33.8326 5.17532C33.7795 5.21354 33.7192 5.24072 33.6554 5.25527C33.5916 5.26982 33.5255 5.27144 33.4611 5.26004H33.4011C33.1611 5.26004 32.9211 5.26004 32.6811 5.26004H32.6211L32.6811 5.14004C33.3311 3.85004 33.9711 2.64004 34.6111 1.42004C34.6356 1.36776 34.6756 1.32432 34.7257 1.29568C34.7759 1.26704 34.8336 1.25459 34.8911 1.26004H36.0211ZM35.3111 3.87004L35.1611 2.52004L34.5311 3.88004L35.3111 3.87004Z" fill="white"/>
<path d="M20.7383 10.2496L24.1483 8.34961C25.0566 10.7004 25.2164 13.2744 24.6061 15.7195C23.9957 18.1646 22.6448 20.3615 20.7383 22.0096V10.2496Z" fill="white"/>
</g>
<defs>
<clipPath id="clip0">
<rect width="69.97" height="26" fill="white"/>
</clipPath>
</defs>
</svg>
